<svg xmlns="http://www.w3.org/2000/svg" xmlns:xlink="http://www.w3.org/1999/xlink" xlink:href="#svg_my_20" >
<defs><symbol id="svg_my_20" viewBox="0 0 24 24">
        <path fill="#AFBAC8" d="M10.358 9.194c.044.118.041.249-.007.366l-3.277 7.883c-.106.255-.398.376-.653.27-.06-.025-.116-.062-.162-.108l-1.746-1.746-1.985 1.87c-.402.378-1.035.359-1.413-.044-.35-.37-.36-.939-.044-1.322l.086-.091L3.1 14.444l-1.705-1.705c-.195-.195-.195-.512 0-.707.051-.05.112-.09.18-.115l8.141-3.018c.259-.096.547.036.643.295zm7.778-7.43c1.791 1.856 1.942 4.777.363 6.837l-.158.197-6.772 7.012c-.642.644-1.66.685-2.35.119l-.125-.113c-.295-.294-.296-.769-.004-1.062.266-.267.682-.293.976-.076l.085.073c.082.082.206.096.302.041l.055-.043 6.72-6.955c1.216-1.443 1.143-3.626-.171-4.988-1.261-1.305-3.263-1.407-4.634-.27l-.15.131-1.418 1.316c-.259.24-.645.264-.93.073l-.09-.072-1.42-1.316c-1.376-1.275-3.476-1.216-4.788.14-1.312 1.357-1.384 3.543-.204 4.947l.613.634c.288.298.28.773-.018 1.06-.298.289-.773.28-1.061-.018L2.31 8.76C.6 6.73.701 3.676 2.55 1.766 4.37-.118 7.277-.256 9.253 1.407l.182.161.908.842.91-.842c1.97-1.83 5.008-1.745 6.883.196z" transform="translate(-676 -964) translate(447 895) translate(229 69) translate(1.657 3)"></path>
    </symbol></defs><g>
        <path fill="#AFBAC8" d="M10.358 9.194c.044.118.041.249-.007.366l-3.277 7.883c-.106.255-.398.376-.653.27-.06-.025-.116-.062-.162-.108l-1.746-1.746-1.985 1.87c-.402.378-1.035.359-1.413-.044-.35-.37-.36-.939-.044-1.322l.086-.091L3.1 14.444l-1.705-1.705c-.195-.195-.195-.512 0-.707.051-.05.112-.09.18-.115l8.141-3.018c.259-.096.547.036.643.295zm7.778-7.43c1.791 1.856 1.942 4.777.363 6.837l-.158.197-6.772 7.012c-.642.644-1.66.685-2.35.119l-.125-.113c-.295-.294-.296-.769-.004-1.062.266-.267.682-.293.976-.076l.085.073c.082.082.206.096.302.041l.055-.043 6.72-6.955c1.216-1.443 1.143-3.626-.171-4.988-1.261-1.305-3.263-1.407-4.634-.27l-.15.131-1.418 1.316c-.259.24-.645.264-.93.073l-.09-.072-1.42-1.316c-1.376-1.275-3.476-1.216-4.788.14-1.312 1.357-1.384 3.543-.204 4.947l.613.634c.288.298.28.773-.018 1.06-.298.289-.773.28-1.061-.018L2.31 8.76C.6 6.73.701 3.676 2.55 1.766 4.37-.118 7.277-.256 9.253 1.407l.182.161.908.842.91-.842c1.97-1.83 5.008-1.745 6.883.196z" transform="translate(-676 -964) translate(447 895) translate(229 69) translate(1.657 3)"></path>
    </g></svg>

