<svg xmlns="http://www.w3.org/2000/svg" xmlns:xlink="http://www.w3.org/1999/xlink" xlink:href="#svg_my_19" >
<defs><symbol id="svg_my_19" viewBox="0 0 24 24">
        <path fill="#AFBAC8" d="M14.833-.421L1.166 3.849c-.368.116-.662.394-.798.755l-.039.122c-.16.613.165 1.26.77 1.487l6.295 2.361 1.936 6.195c.118.38.41.68.786.81.653.224 1.364-.124 1.589-.777l4.683-13.624c.087-.252.09-.525.011-.779-.206-.659-.907-1.026-1.566-.82zm-.025 1.578l-4.274 12.437-1.818-5.818-.043-.106c-.083-.17-.23-.305-.41-.372L2.308 5.064l12.5-3.907z" transform="translate(-448 -964) translate(447 895) translate(1 69) translate(3 4)"></path>
    </symbol></defs><g>
        <path fill="#AFBAC8" d="M14.833-.421L1.166 3.849c-.368.116-.662.394-.798.755l-.039.122c-.16.613.165 1.26.77 1.487l6.295 2.361 1.936 6.195c.118.38.41.68.786.81.653.224 1.364-.124 1.589-.777l4.683-13.624c.087-.252.09-.525.011-.779-.206-.659-.907-1.026-1.566-.82zm-.025 1.578l-4.274 12.437-1.818-5.818-.043-.106c-.083-.17-.23-.305-.41-.372L2.308 5.064l12.5-3.907z" transform="translate(-448 -964) translate(447 895) translate(1 69) translate(3 4)"></path>
    </g></svg>

