<svg xmlns="http://www.w3.org/2000/svg" xmlns:xlink="http://www.w3.org/1999/xlink" xlink:href="#svg_my_15" >
  <defs><symbol id="svg_my_15" viewBox="0 0 24 24">
        <path fill="#AFBAC8" d="M8.271.818C8.886.374 9.718.376 10.33.824l7.203 5.271c.45.33.717.854.717 1.412V16c0 1.243-1.007 2.25-2.25 2.25H2.5C1.257 18.25.25 17.243.25 16V7.511c0-.562.27-1.09.725-1.418zm1.173 1.217c-.087-.064-.206-.065-.294-.001L1.854 7.308c-.065.047-.104.123-.104.203V16c0 .414.336.75.75.75h6V11.25c0-.414.336-.75.75-.75.38 0 .693.282.743.648l.007.102v5.499h6c.38 0 .693-.282.743-.648L16.75 16V7.507c0-.08-.038-.154-.102-.201z" transform="translate(-447 -900) translate(447 895) translate(0 5) translate(2.75 2.75)"></path>
    </symbol></defs><g>
        <path fill="#AFBAC8" d="M8.271.818C8.886.374 9.718.376 10.33.824l7.203 5.271c.45.33.717.854.717 1.412V16c0 1.243-1.007 2.25-2.25 2.25H2.5C1.257 18.25.25 17.243.25 16V7.511c0-.562.27-1.09.725-1.418zm1.173 1.217c-.087-.064-.206-.065-.294-.001L1.854 7.308c-.065.047-.104.123-.104.203V16c0 .414.336.75.75.75h6V11.25c0-.414.336-.75.75-.75.38 0 .693.282.743.648l.007.102v5.499h6c.38 0 .693-.282.743-.648L16.75 16V7.507c0-.08-.038-.154-.102-.201z" transform="translate(-447 -900) translate(447 895) translate(0 5) translate(2.75 2.75)"></path>
    </g>
 </svg>
