<svg xmlns="http://www.w3.org/2000/svg" xmlns:xlink="http://www.w3.org/1999/xlink" xlink:href="#svg_my_18" >
<defs><symbol id="svg_my_18" viewBox="0 0 24 24">
        <path fill="#AFBAC8" d="M14.5.25c.918 0 1.671.707 1.744 1.606L16.25 2v3.25h.25c.918 0 1.671.707 1.744 1.606L18.25 7v9c0 1.19-.925 2.166-2.096 2.245L16 18.25H2.5c-1.19 0-2.166-.925-2.245-2.096L.25 16V7c0-.918.707-1.671 1.606-1.744L2 5.25h.25V2c0-.918.707-1.671 1.606-1.744L4 .25h10.5zM9.249 11.246l-6.29 5.504h12.58l-6.29-5.504zm7.501-1.684l-3.849 2.886 3.849 3.368V9.562zm-15 .001v6.252l3.848-3.367L1.75 9.563zM14.5 1.75H4c-.118 0-.217.082-.243.193L3.75 2v7.188l3.002 2.251 2.004-1.753c.255-.223.622-.245.9-.067l.088.067 2.003 1.753 3.003-2.252V2c0-.118-.082-.217-.193-.243L14.5 1.75zm-12.25 5H2c-.118 0-.217.082-.243.193L1.75 7v.688l.5.375V6.75zm14.25 0h-.25v1.312l.5-.375V7c0-.118-.082-.217-.193-.243L16.5 6.75zm-7.51-2.5c.415 0 .75.336.75.75 0 .38-.281.693-.647.743l-.102.007h-3c-.414 0-.75-.336-.75-.75 0-.38.282-.693.648-.743l.102-.007h3z" transform="translate(-1122 -899) translate(447 895) translate(675 4) translate(2.75 2.75)"></path>
    </symbol></defs><g>
        <path fill="#AFBAC8" d="M14.5.25c.918 0 1.671.707 1.744 1.606L16.25 2v3.25h.25c.918 0 1.671.707 1.744 1.606L18.25 7v9c0 1.19-.925 2.166-2.096 2.245L16 18.25H2.5c-1.19 0-2.166-.925-2.245-2.096L.25 16V7c0-.918.707-1.671 1.606-1.744L2 5.25h.25V2c0-.918.707-1.671 1.606-1.744L4 .25h10.5zM9.249 11.246l-6.29 5.504h12.58l-6.29-5.504zm7.501-1.684l-3.849 2.886 3.849 3.368V9.562zm-15 .001v6.252l3.848-3.367L1.75 9.563zM14.5 1.75H4c-.118 0-.217.082-.243.193L3.75 2v7.188l3.002 2.251 2.004-1.753c.255-.223.622-.245.9-.067l.088.067 2.003 1.753 3.003-2.252V2c0-.118-.082-.217-.193-.243L14.5 1.75zm-12.25 5H2c-.118 0-.217.082-.243.193L1.75 7v.688l.5.375V6.75zm14.25 0h-.25v1.312l.5-.375V7c0-.118-.082-.217-.193-.243L16.5 6.75zm-7.51-2.5c.415 0 .75.336.75.75 0 .38-.281.693-.647.743l-.102.007h-3c-.414 0-.75-.336-.75-.75 0-.38.282-.693.648-.743l.102-.007h3z" transform="translate(-1122 -899) translate(447 895) translate(675 4) translate(2.75 2.75)"></path>
    </g>
 </svg>

