<svg xmlns="http://www.w3.org/2000/svg" xmlns:xlink="http://www.w3.org/1999/xlink" xlink:href="#svg_my_16" >
<defs><symbol id="svg_my_16" viewBox="0 0 24 24">
        <path fill="#AFBAC8" d="M13.018 1.158c.685-.672 1.784-.667 2.463.012l2.347 2.348c.677.69.667 1.798-.023 2.474L5.567 18c-.327.321-.767.501-1.226.501H1.2c-.525 0-.95-.425-.95-.95v-3.13c0-.47.189-.92.524-1.25zm-1.802 3.869L1.825 14.24c-.048.047-.075.112-.075.179V17h2.591c.044 0 .086-.011.124-.033l.051-.039 9.39-9.211-2.69-2.69zM14.42 2.23c-.097-.097-.254-.098-.352-.002l-1.781 1.748 2.689 2.689 1.778-1.744c.082-.08.097-.204.047-.297l-.039-.052z" transform="translate(-676 -899) translate(447 895) translate(229 4) translate(2.75 2.5)"></path>
    </symbol></defs><g>
        <path fill="#AFBAC8" d="M13.018 1.158c.685-.672 1.784-.667 2.463.012l2.347 2.348c.677.69.667 1.798-.023 2.474L5.567 18c-.327.321-.767.501-1.226.501H1.2c-.525 0-.95-.425-.95-.95v-3.13c0-.47.189-.92.524-1.25zm-1.802 3.869L1.825 14.24c-.048.047-.075.112-.075.179V17h2.591c.044 0 .086-.011.124-.033l.051-.039 9.39-9.211-2.69-2.69zM14.42 2.23c-.097-.097-.254-.098-.352-.002l-1.781 1.748 2.689 2.689 1.778-1.744c.082-.08.097-.204.047-.297l-.039-.052z" transform="translate(-676 -899) translate(447 895) translate(229 4) translate(2.75 2.5)"></path>
    </g>
 </svg>

