<svg xmlns:xlink="http://www.w3.org/1999/xlink" xmlns="http://www.w3.org/2000/svg" class="img_alarm top_btn_icon" width="24"  height="24" ><defs><symbol id="svg_top_alarm_off" viewBox="0 0 24 24">
        <g fill="none" fill-rule="evenodd">
            <g fill="#5c667b" fill-rule="nonzero">
                <path d="M9.222 0c.38 0 .694.282.744.648l.006.102v1.535c3.87.368 6.264 3.586 6.265 7.506v.59c0 1.695.635 3.494 1.927 5.4.196.29.3.632.3.982 0 .967-.783 1.75-1.75 1.75h-3.742l-.005.168c-.109 1.74-1.768 3.069-3.745 3.069-1.975 0-3.635-1.328-3.744-3.068l-.006-.169H1.75c-.295 0-.585-.075-.842-.216l-.15-.092c-.796-.548-.997-1.638-.45-2.434 1.311-1.904 1.955-3.699 1.954-5.39v-.59c0-3.989 2.334-7.147 6.21-7.507V.75c0-.414.336-.75.75-.75zm2.249 18.513H6.973l.005.114c.084.879 1.033 1.623 2.244 1.623 1.213 0 2.16-.744 2.244-1.624l.005-.113zM9.222 3.75c-3.411 0-5.46 2.565-5.46 6.041v.59c0 2.02-.746 4.102-2.218 6.24-.078.114-.05.27.064.348.042.029.092.044.142.044h14.965c.138 0 .25-.112.25-.25 0-.05-.015-.099-.043-.14-1.45-2.14-2.185-4.222-2.185-6.241v-.59c-.001-3.403-2.118-6.042-5.515-6.042z" transform="translate(-1720 -265) translate(0 233) translate(1720 32) translate(2.75 1.25)"></path>
            </g>
        </g>
    </symbol></defs><use xlink:href="#svg_top_alarm_off" class="top_layer_icon"></use></svg>