<svg xmlns:xlink="http://www.w3.org/1999/xlink" xmlns="http://www.w3.org/2000/svg" class="img_ci" width="120"  height="24" ><defs><symbol id="svg_saramin_ci" viewBox="0 0 120 24">
        <g fill="none">
            <g fill="#4876EF">
                <path d="M21.442 18.766l-.037.023c-.275.17-1.112.69-2.634.69-1.578 0-2.483-.665-2.483-1.825 0-1.06.966-1.773 2.403-1.773 1.023 0 1.79.161 2.694.421l.057.016v2.448zm-7.56-8.492c0 .482.195.888.55 1.143.439.313 1.08.363 1.804.139.653-.204 1.632-.447 2.59-.447 1.833 0 2.616.631 2.616 2.112v.802L21.344 14c-.985-.228-1.773-.389-2.946-.389-5.034 0-5.425 3.195-5.425 4.174 0 2.181 1.46 4.513 5.558 4.513 3.199 0 5.09-1.088 5.592-1.422.46-.299.607-.581.607-1.162v-6.389c0-3.462-1.96-5.217-5.825-5.217-1.615 0-3.152.334-3.896.646-.748.3-1.127.812-1.127 1.52zM60.794 9.63l-.05-.051c-.963-1.003-2.176-1.47-3.817-1.47-1.766 0-3.553.552-4.781 1.478-.494.352-.659.66-.659 1.223v9.756c0 .939.778 1.732 1.699 1.732.969 0 1.7-.745 1.7-1.732v-8.514l.086-.054c.262-.167.956-.61 2.114-.61 1.479 0 2.229.82 2.229 2.438v6.74c0 .939.778 1.732 1.699 1.732.952 0 1.699-.761 1.699-1.732v-8.514l.088-.054c.26-.167.955-.61 2.114-.61 1.457 0 2.228.852 2.228 2.464v6.714c0 .939.766 1.732 1.672 1.732.968 0 1.726-.761 1.726-1.732v-6.792c0-3.812-1.78-5.666-5.441-5.666-1.543 0-3.012.512-4.25 1.478l-.056.044zM45.361 18.766l-.036.023c-.275.17-1.112.69-2.634.69-1.579 0-2.484-.665-2.484-1.825 0-1.06.966-1.773 2.404-1.773 1.023 0 1.789.161 2.693.421l.057.016v2.448zm-7.56-8.492c0 .482.196.888.55 1.143.44.313 1.08.363 1.804.139.653-.204 1.632-.447 2.59-.447 1.833 0 2.616.631 2.616 2.112v.802L45.264 14c-.985-.228-1.774-.389-2.947-.389-5.034 0-5.425 3.195-5.425 4.174 0 2.181 1.46 4.513 5.558 4.513 3.199 0 5.09-1.088 5.593-1.422.459-.298.606-.58.606-1.162v-6.389c0-3.462-1.96-5.217-5.825-5.217-1.616 0-3.152.334-3.896.646-.748.3-1.127.812-1.127 1.52zM34.481 8.316c-.522-.128-1.397-.208-2.282-.208-2.943 0-4.631 1.606-4.631 4.407v8.17c0 .889.739 1.613 1.647 1.613.015-.002.022-.004.031-.004l.029.002h.001c.968 0 1.72-.748 1.72-1.704V13.17c0-1.17.48-1.753 1.468-1.783.452-.016.83.059 1.194.13.282.054.549.106.817.106 1.096 0 1.606-.94 1.606-1.574 0-.847-.568-1.463-1.6-1.734M7.45 14.118l-2.102-.429c-1.177-.262-1.678-.647-1.678-1.29 0-.372.194-1.237 1.99-1.237.744 0 1.821.258 2.504.6.852.439 1.73.361 2.237-.197.283-.323.432-.778.397-1.214-.024-.293-.138-.714-.55-1.054C9.39 8.586 7.6 8.108 5.793 8.108c-3.296 0-5.426 1.727-5.426 4.399 0 2.504 2.115 3.572 3.89 4.026.608.155.912.21 1.264.273.252.046.514.093.918.182 1.122.267 1.622.682 1.622 1.343 0 .481-.271 1.287-2.09 1.287-1.26 0-2.623-.353-3.471-.9-.343-.219-.694-.326-1.024-.326-.466 0-.892.212-1.2.627-.469.617-.324 1.62.309 2.147.552.462 2.17 1.537 5.272 1.537 3.286 0 5.494-1.843 5.494-4.586 0-2.087-1.276-3.395-3.901-3.999M75 6.487c-.923 0-1.62.74-1.62 1.721v9.125c0 .933.742 1.721 1.62 1.721.91 0 1.622-.756 1.622-1.72V8.207c0-.965-.712-1.721-1.621-1.721M75 0c-1.386 0-2.432 1.031-2.432 2.398 0 1.384 1.069 2.467 2.433 2.467 1.318 0 2.432-1.13 2.432-2.467C77.433 1.053 76.365 0 75.001 0M85.644 8.108c-3.391 0-5.234 1.19-5.577 1.428-.454.315-.607.623-.607 1.222v9.807c0 .94.783 1.733 1.709 1.733.974 0 1.708-.745 1.708-1.733v-8.513l.037-.023c.498-.309 1.508-.641 2.624-.641 1.29 0 2.667.668 2.667 2.543v6.634c0 .94.783 1.733 1.709 1.733.974 0 1.709-.745 1.709-1.733v-6.792c0-3.706-2.068-5.665-5.979-5.665" transform="translate(27.485)" fill="#4876EF"></path>
            </g>
            <g transform="translate(0 3.295)" fill="none">
                <circle cx="4.257" cy="4.257" r="4.257" fill="#4876EF"></circle>
                <circle cx="15.608" cy="4.257" r="4.257" fill="#B4C0D3"></circle>
                <circle cx="4.257" cy="15.608" r="4.257" fill="#B4C0D3"></circle>
                <circle cx="15.608" cy="15.608" r="4.257" fill="#00D3AB"></circle>
            </g>
        </g>
    </symbol></defs><use xlink:href="#svg_saramin_ci"></use></svg>