<svg xmlns:xlink="http://www.w3.org/1999/xlink" xmlns="http://www.w3.org/2000/svg" class="img_record top_btn_icon" width="24"  height="24" ><defs><symbol id="svg_top_flag" viewBox="0 0 24 24">
        <g fill="none" fill-rule="evenodd">
            <g transform="translate(-1672 -201) translate(0 169) translate(1664 24)" fill="none">
                <g fill='#5c667b' fill-rule="nonzero">
                    <path d="M4.75 10.5C5.993 10.5 7 11.507 7 12.75l.007.102c.05.366.363.648.743.648h5.5c.414 0 .75-.336.75-.75 0-1.243 1.008-2.25 2.25-2.25H19c.967 0 1.75.784 1.75 1.75v5c0 .966-.783 1.75-1.75 1.75H1.75C.784 19 0 18.216 0 17.25v-5c0-.966.784-1.75 1.75-1.75zm0 1.5h-3c-.138 0-.25.112-.25.25v5c0 .138.112.25.25.25H19c.138 0 .25-.112.25-.25v-5c0-.138-.112-.25-.25-.25h-2.75c-.414 0-.75.336-.75.75l-.005.154C15.415 14.074 14.441 15 13.25 15h-5.5c-1.242 0-2.25-1.007-2.25-2.25 0-.414-.336-.75-.75-.75zm1-4.75H15c.414 0 .75.336.75.75s-.336.75-.75.75H5.75C5.336 8.75 5 8.414 5 8s.336-.75.75-.75zm.75-3.5h7.75c.414 0 .75.336.75.75s-.336.75-.75.75H6.5c-.414 0-.75-.336-.75-.75s.336-.75.75-.75zM15.69 0c1.201 0 2.256.779 2.618 1.91l.05.173 2.37 9.485c.101.402-.143.81-.545.91-.368.092-.741-.106-.878-.449l-.031-.097L16.9 2.447c-.128-.514-.564-.886-1.081-.94l-.131-.007H4.847c-.54 0-1.012.344-1.183.845l-.036.128-2.146 9.443c-.092.404-.494.657-.898.565-.37-.084-.614-.428-.581-.796l.016-.101L2.165 2.14C2.437.945 3.463.08 4.673.005L4.847 0h10.842z" transform="translate(9.5 11)"></path>
                </g>
            </g>
        </g>
    </symbol></defs><use xlink:href="#svg_top_flag" class="top_layer_icon"></use></svg>