<svg xmlns="http://www.w3.org/2000/svg" xmlns:xlink="http://www.w3.org/1999/xlink" xlink:href="#svg_my_16" >
<defs><symbol id="svg_my_17" viewBox="0 0 24 24">
        <path fill="#4876ef" d="M10.74 1.32c1.034-.69 2.43-.413 3.12.62.276.412.407.903.375 1.397l-.209 3.2 2.518 1.986c.933.736 1.127 2.063.468 3.03l-.095.13c-.306.389-.732.665-1.212.787l-3.108.79-1.11 3.01c-.413 1.114-1.614 1.708-2.738 1.38l-.153-.05c-.464-.17-.859-.49-1.123-.909l-1.01-1.602-3.53 4.867c-.243.336-.712.41-1.047.167-.305-.22-.394-.629-.225-.953l.058-.094 3.706-5.11-2.869-.114c-1.133-.045-2.038-.92-2.15-2.018l-.01-.158.001-.16c.02-.495.202-.97.518-1.35l2.05-2.468-.87-3.085c-.32-1.14.296-2.32 1.388-2.722l.168-.054c.476-.134.983-.108 1.443.076l2.978 1.186zm1.873 1.454c-.23-.345-.695-.437-1.04-.207l-2.995 2c-.205.137-.465.164-.694.072L4.539 3.306c-.154-.061-.323-.07-.481-.025-.4.112-.631.526-.519.925l.977 3.466c.066.238.012.493-.146.683l-2.302 2.77c-.105.127-.166.285-.172.45-.017.413.306.762.72.779l3.598.142c.247.01.473.14.605.35L8.74 15.89c.088.14.22.246.375.303.388.144.82-.055.963-.443l1.247-3.379c.086-.231.28-.406.52-.467l3.49-.887c.16-.041.301-.133.403-.263.257-.325.201-.797-.124-1.053l-2.827-2.23c-.194-.153-.3-.392-.284-.638l.234-3.594c.01-.164-.033-.328-.125-.465z" transform="translate(-901 -899) translate(447 895) translate(454 4) translate(4.5 1.5)"></path>
    </symbol></defs><g>
        <path fill="#4876ef" d="M10.74 1.32c1.034-.69 2.43-.413 3.12.62.276.412.407.903.375 1.397l-.209 3.2 2.518 1.986c.933.736 1.127 2.063.468 3.03l-.095.13c-.306.389-.732.665-1.212.787l-3.108.79-1.11 3.01c-.413 1.114-1.614 1.708-2.738 1.38l-.153-.05c-.464-.17-.859-.49-1.123-.909l-1.01-1.602-3.53 4.867c-.243.336-.712.41-1.047.167-.305-.22-.394-.629-.225-.953l.058-.094 3.706-5.11-2.869-.114c-1.133-.045-2.038-.92-2.15-2.018l-.01-.158.001-.16c.02-.495.202-.97.518-1.35l2.05-2.468-.87-3.085c-.32-1.14.296-2.32 1.388-2.722l.168-.054c.476-.134.983-.108 1.443.076l2.978 1.186zm1.873 1.454c-.23-.345-.695-.437-1.04-.207l-2.995 2c-.205.137-.465.164-.694.072L4.539 3.306c-.154-.061-.323-.07-.481-.025-.4.112-.631.526-.519.925l.977 3.466c.066.238.012.493-.146.683l-2.302 2.77c-.105.127-.166.285-.172.45-.017.413.306.762.72.779l3.598.142c.247.01.473.14.605.35L8.74 15.89c.088.14.22.246.375.303.388.144.82-.055.963-.443l1.247-3.379c.086-.231.28-.406.52-.467l3.49-.887c.16-.041.301-.133.403-.263.257-.325.201-.797-.124-1.053l-2.827-2.23c-.194-.153-.3-.392-.284-.638l.234-3.594c.01-.164-.033-.328-.125-.465z" transform="translate(-901 -899) translate(447 895) translate(454 4) translate(4.5 1.5)"></path>
    </g>
 </svg>

