<svg xmlns:xlink="http://www.w3.org/1999/xlink" xmlns="http://www.w3.org/2000/svg" class="svg_icon_close" width="16"  height="16" ><defs><symbol id="svg_gnb_close" viewBox="0 0 16 16">
        <g fill="none" fill-rule="evenodd">
            <g fill="#AFBAC8" fill-rule="nonzero">
                <path d="M7.25 11.5c.414 0 .75.336.75.75 0 .38-.282.693-.648.743L7.25 13H.75c-.414 0-.75-.336-.75-.75 0-.38.282-.693.648-.743L.75 11.5h6.5zm4.196-9.603l.084.073 4 4c.267.266.29.683.073.976l-.073.084-4 4c-.293.293-.767.293-1.06 0-.267-.266-.29-.683-.073-.976l.073-.084 2.719-2.72H.75C.336 7.25 0 6.914 0 6.5c0-.38.282-.693.648-.743L.75 5.75h12.439l-2.72-2.72c-.266-.266-.29-.683-.072-.976l.073-.084c.266-.267.683-.29.976-.073zM7.25 0c.414 0 .75.336.75.75 0 .38-.282.693-.648.743L7.25 1.5H.75C.336 1.5 0 1.164 0 .75 0 .37.282.057.648.007L.75 0h6.5z" transform="translate(-224 -36) translate(224 36) rotate(-180 8 7.5)"></path>
            </g>
        </g>
    </symbol></defs><use xlink:href="#svg_gnb_close"></use></svg>