<svg xmlns="http://www.w3.org/2000/svg" xmlns:xlink="http://www.w3.org/1999/xlink" xlink:href="#svg_my_59">
<defs><symbol id="svg_my_59" viewBox="0 0 24 24">
        <path d="M9.35 1.037c.357-.589 1.123-.778 1.713-.424l.823.494c1.033.62 1.49 1.879 1.093 3.016L11.804 7.5H17.5c.918 0 1.671.707 1.744 1.606l.006.144v2.28c0 .254-.056.505-.163.736l-2.35 5.063c-.615 1.324-1.942 2.171-3.402 2.171H2c-.966 0-1.75-.784-1.75-1.75v-7.5c0-.966.784-1.75 1.75-1.75h2.827zM4.25 10H2c-.138 0-.25.112-.25.25v7.5c0 .138.112.25.25.25h2.25v-8zm6.254-7.973L5.891 9.639c-.038.064-.086.12-.14.17l-.001 8.19 7.585.001c.818 0 1.566-.443 1.962-1.148l.08-.154 2.35-5.064c.015-.033.023-.068.023-.105V9.25c0-.138-.112-.25-.25-.25h-6.75c-.516 0-.878-.509-.708-.996l1.52-4.374c.163-.466-.024-.983-.448-1.237l-.61-.366z" transform="translate(1.75 1.5)" fill="#AFBAC8"></path>
    </symbol></defs><g>
        <path d="M9.35 1.037c.357-.589 1.123-.778 1.713-.424l.823.494c1.033.62 1.49 1.879 1.093 3.016L11.804 7.5H17.5c.918 0 1.671.707 1.744 1.606l.006.144v2.28c0 .254-.056.505-.163.736l-2.35 5.063c-.615 1.324-1.942 2.171-3.402 2.171H2c-.966 0-1.75-.784-1.75-1.75v-7.5c0-.966.784-1.75 1.75-1.75h2.827zM4.25 10H2c-.138 0-.25.112-.25.25v7.5c0 .138.112.25.25.25h2.25v-8zm6.254-7.973L5.891 9.639c-.038.064-.086.12-.14.17l-.001 8.19 7.585.001c.818 0 1.566-.443 1.962-1.148l.08-.154 2.35-5.064c.015-.033.023-.068.023-.105V9.25c0-.138-.112-.25-.25-.25h-6.75c-.516 0-.878-.509-.708-.996l1.52-4.374c.163-.466-.024-.983-.448-1.237l-.61-.366z" transform="translate(1.75 1.5)" fill="#AFBAC8"></path>
    </g></svg>
    