<svg xmlns="http://www.w3.org/2000/svg" xmlns:xlink="http://www.w3.org/1999/xlink" xlink:href="#svg_gnb_arrow">
   <g fill="none" fill-rule="evenodd"><g transform="translate(-1242 -1000) translate(938 784) translate(46 204) translate(20 12) translate(238)"><path fill="%23AFBAC8" d="M12.5 16c.828 0 1.5.672 1.5 1.5s-.672 1.5-1.5 1.5-1.5-.672-1.5-1.5.672-1.5 1.5-1.5zm0-5c.828 0 1.5.672 1.5 1.5s-.672 1.5-1.5 1.5-1.5-.672-1.5-1.5.672-1.5 1.5-1.5zm0-5c.828 0 1.5.672 1.5 1.5S13.328 9 12.5 9 11 8.328 11 7.5 11.672 6 12.5 6z"></path></g></g>
</svg>

